<svg width="76" height="35" viewBox="0 0 76 35" fill="none" xmlns="http://www.w3.org/2000/svg">
<rect x="1.5" y="1.5" width="73" height="32" rx="8.5" stroke="#E58D00" stroke-width="3"/>
<path d="M18.8141 13.0381V18.2881C18.8141 18.7438 18.7936 19.1312 18.7526 19.4502C18.7162 19.7692 18.6296 20.0928 18.4929 20.4209C18.265 20.9723 17.889 21.403 17.3649 21.7129C16.8408 22.0182 16.2028 22.1709 15.4509 22.1709C14.7718 22.1709 14.2044 22.0638 13.7487 21.8496C13.2975 21.6354 12.933 21.2891 12.655 20.8105C12.5091 20.5553 12.3906 20.2614 12.2995 19.9287C12.2083 19.596 12.1628 19.2793 12.1628 18.9785C12.1628 18.6595 12.2516 18.4157 12.4294 18.2471C12.6071 18.0785 12.835 17.9941 13.113 17.9941C13.3818 17.9941 13.5846 18.0716 13.7214 18.2266C13.8581 18.3815 13.9629 18.623 14.0358 18.9512C14.1133 19.3021 14.1908 19.5824 14.2682 19.792C14.3457 20.0016 14.4756 20.1816 14.6579 20.332C14.8402 20.4824 15.0999 20.5576 15.4372 20.5576C16.335 20.5576 16.7839 19.8991 16.7839 18.582V13.0381C16.7839 12.6279 16.8727 12.3203 17.0505 12.1152C17.2328 11.9102 17.4789 11.8076 17.7887 11.8076C18.1032 11.8076 18.3516 11.9102 18.5339 12.1152C18.7207 12.3203 18.8141 12.6279 18.8141 13.0381ZM27.912 20.8652L27.4334 19.6074H23.3592L22.8807 20.8926C22.6939 21.3939 22.5343 21.7334 22.4022 21.9111C22.27 22.0843 22.0536 22.1709 21.7528 22.1709C21.4976 22.1709 21.272 22.0775 21.076 21.8906C20.8801 21.7038 20.7821 21.4919 20.7821 21.2549C20.7821 21.1182 20.8049 20.9769 20.8504 20.8311C20.896 20.6852 20.9712 20.4824 21.076 20.2227L23.6395 13.7148C23.7124 13.528 23.799 13.3047 23.8993 13.0449C24.0041 12.7806 24.1135 12.5618 24.2274 12.3887C24.3459 12.2155 24.4985 12.0765 24.6854 11.9717C24.8768 11.8623 25.1115 11.8076 25.3895 11.8076C25.672 11.8076 25.9067 11.8623 26.0936 11.9717C26.285 12.0765 26.4377 12.2132 26.5516 12.3818C26.6701 12.5505 26.7681 12.7327 26.8455 12.9287C26.9276 13.1201 27.0301 13.3776 27.1532 13.7012L29.7713 20.168C29.9764 20.6602 30.0789 21.0179 30.0789 21.2412C30.0789 21.4736 29.981 21.6878 29.785 21.8838C29.5936 22.0752 29.3612 22.1709 29.0877 22.1709C28.9282 22.1709 28.7915 22.1413 28.6776 22.082C28.5636 22.0273 28.4679 21.9521 28.3905 21.8564C28.313 21.7562 28.2287 21.6058 28.1375 21.4053C28.051 21.2002 27.9758 21.0202 27.912 20.8652ZM23.8924 18.083H26.8866L25.3758 13.9473L23.8924 18.083ZM35.7998 20.4893L34.1934 14.1045V21.0225C34.1934 21.4053 34.1068 21.6924 33.9336 21.8838C33.765 22.0752 33.5394 22.1709 33.2568 22.1709C32.9834 22.1709 32.7601 22.0775 32.5869 21.8906C32.4137 21.6992 32.3271 21.4098 32.3271 21.0225V13.0928C32.3271 12.6553 32.4411 12.3613 32.6689 12.2109C32.8968 12.056 33.2044 11.9785 33.5918 11.9785H34.2207C34.599 11.9785 34.8724 12.0127 35.041 12.0811C35.2142 12.1494 35.3418 12.2725 35.4238 12.4502C35.5059 12.6279 35.5993 12.9173 35.7041 13.3184L37.1602 18.8076L38.6162 13.3184C38.721 12.9173 38.8145 12.6279 38.8965 12.4502C38.9785 12.2725 39.1038 12.1494 39.2725 12.0811C39.4456 12.0127 39.7214 11.9785 40.0996 11.9785H40.7285C41.1159 11.9785 41.4235 12.056 41.6514 12.2109C41.8792 12.3613 41.9932 12.6553 41.9932 13.0928V21.0225C41.9932 21.4053 41.9066 21.6924 41.7334 21.8838C41.5648 22.0752 41.3369 22.1709 41.0498 22.1709C40.7809 22.1709 40.5599 22.0752 40.3867 21.8838C40.2135 21.6924 40.127 21.4053 40.127 21.0225V14.1045L38.5205 20.4893C38.4157 20.904 38.3291 21.2093 38.2607 21.4053C38.1969 21.5967 38.0762 21.7721 37.8984 21.9316C37.7207 22.0911 37.4746 22.1709 37.1602 22.1709C36.9232 22.1709 36.7227 22.1185 36.5586 22.0137C36.3945 21.9134 36.2669 21.7835 36.1758 21.624C36.0846 21.4645 36.0117 21.2891 35.957 21.0977C35.9069 20.9017 35.8545 20.6989 35.7998 20.4893ZM51.3302 20.8652L50.8517 19.6074H46.7775L46.299 20.8926C46.1121 21.3939 45.9526 21.7334 45.8205 21.9111C45.6883 22.0843 45.4718 22.1709 45.1711 22.1709C44.9158 22.1709 44.6903 22.0775 44.4943 21.8906C44.2983 21.7038 44.2004 21.4919 44.2004 21.2549C44.2004 21.1182 44.2231 20.9769 44.2687 20.8311C44.3143 20.6852 44.3895 20.4824 44.4943 20.2227L47.0578 13.7148C47.1307 13.528 47.2173 13.3047 47.3175 13.0449C47.4224 12.7806 47.5317 12.5618 47.6457 12.3887C47.7642 12.2155 47.9168 12.0765 48.1037 11.9717C48.2951 11.8623 48.5298 11.8076 48.8078 11.8076C49.0903 11.8076 49.325 11.8623 49.5119 11.9717C49.7033 12.0765 49.856 12.2132 49.9699 12.3818C50.0884 12.5505 50.1864 12.7327 50.2638 12.9287C50.3459 13.1201 50.4484 13.3776 50.5714 13.7012L53.1896 20.168C53.3947 20.6602 53.4972 21.0179 53.4972 21.2412C53.4972 21.4736 53.3992 21.6878 53.2033 21.8838C53.0119 22.0752 52.7795 22.1709 52.506 22.1709C52.3465 22.1709 52.2098 22.1413 52.0959 22.082C51.9819 22.0273 51.8862 21.9521 51.8088 21.8564C51.7313 21.7562 51.647 21.6058 51.5558 21.4053C51.4692 21.2002 51.394 21.0202 51.3302 20.8652ZM47.3107 18.083H50.3048L48.7941 13.9473L47.3107 18.083ZM57.8782 13.0381V16.5518L61.8636 12.3955C62.055 12.195 62.2168 12.0469 62.3489 11.9512C62.4857 11.8555 62.6657 11.8076 62.889 11.8076C63.1807 11.8076 63.4154 11.8942 63.5931 12.0674C63.7754 12.236 63.8665 12.4434 63.8665 12.6895C63.8665 12.9857 63.7139 13.2796 63.4085 13.5713L60.9407 15.9092L63.7845 19.9834C63.985 20.266 64.1354 20.5143 64.2357 20.7285C64.3359 20.9382 64.3861 21.1432 64.3861 21.3438C64.3861 21.5671 64.2972 21.7607 64.1195 21.9248C63.9463 22.0889 63.7093 22.1709 63.4085 22.1709C63.126 22.1709 62.8958 22.1117 62.7181 21.9932C62.5404 21.8701 62.39 21.7083 62.2669 21.5078C62.1439 21.3073 62.0345 21.125 61.9388 20.9609L59.5394 17.2695L57.8782 18.8623V20.9336C57.8782 21.3529 57.7825 21.665 57.5911 21.8701C57.3997 22.0706 57.1536 22.1709 56.8529 22.1709C56.6797 22.1709 56.5133 22.1253 56.3538 22.0342C56.1943 21.943 56.0713 21.82 55.9847 21.665C55.9209 21.5374 55.8821 21.3893 55.8685 21.2207C55.8548 21.0521 55.848 20.8083 55.848 20.4893V13.0381C55.848 12.6279 55.9368 12.3203 56.1146 12.1152C56.2969 11.9102 56.543 11.8076 56.8529 11.8076C57.1582 11.8076 57.4043 11.9102 57.5911 12.1152C57.7825 12.3158 57.8782 12.6234 57.8782 13.0381Z" fill="#E58D00"/>
</svg>
